PathFileType	4	(X/Y/Z)	/Users/itak/Documents/Research/Walk-IL/dataset/trc/00522_00183.trc
DataRate	CameraRate	NumFrames	NumMarkers	Units	OrigDataRate	OrigDataStartFrame	OrigNumFrames
100.000000	100.000000	4	54	mm	100.000000	327	524
Frame#	Time	RPSI			LPSI			L3			STRN			T10			C7			CLAV			RBAK			LBAK			LSHO			LUPA			LAEL			LAOL			LWTS			LWPS			LFRA			LIFD			LHPS			LHTS			RSHO			RUPA			RAEL			RAOL			RWTS			RWPS			RFRA			RIFD			RHTS			RHPS			RBHD			LFHD			RFHD			LBHD			LHIP			RHIP			RASI			LASI			LKNE			LTHI			LANK			LTIP			LTOE			LMT1			LMT5			LHEE			RKNE			RANK			RTIP			RTOE			RMT1			RMT5			RHEE			RTHI			*53			
		X1	Y1	Z1	X2	Y2	Z2	X3	Y3	Z3	X4	Y4	Z4	X5	Y5	Z5	X6	Y6	Z6	X7	Y7	Z7	X8	Y8	Z8	X9	Y9	Z9	X10	Y10	Z10	X11	Y11	Z11	X12	Y12	Z12	X13	Y13	Z13	X14	Y14	Z14	X15	Y15	Z15	X16	Y16	Z16	X17	Y17	Z17	X18	Y18	Z18	X19	Y19	Z19	X20	Y20	Z20	X21	Y21	Z21	X22	Y22	Z22	X23	Y23	Z23	X24	Y24	Z24	X25	Y25	Z25	X26	Y26	Z26	X27	Y27	Z27	X28	Y28	Z28	X29	Y29	Z29	X30	Y30	Z30	X31	Y31	Z31	X32	Y32	Z32	X33	Y33	Z33	X34	Y34	Z34	X35	Y35	Z35	X36	Y36	Z36	X37	Y37	Z37	X38	Y38	Z38	X39	Y39	Z39	X40	Y40	Z40	X41	Y41	Z41	X42	Y42	Z42	X43	Y43	Z43	X44	Y44	Z44	X45	Y45	Z45	X46	Y46	Z46	X47	Y47	Z47	X48	Y48	Z48	X49	Y49	Z49	X50	Y50	Z50	X51	Y51	Z51	X52	Y52	Z52	X53	Y53	Z53	X54	Y54	Z54	

328	3.27	156.9261016845703	939.9545288085938	325.7126159667969	272.5872802734375	934.5030517578125	280.4329223632812	212.5459289550781	1012.748168945312	300.6699523925781	296.8549499511719	1185.82177734375	493.994140625	198.8851776123047	1117.213623046875	290.0679321289062	208.0890960693359	1348.124389648438	326.3371276855469	278.1846008300781	1280.039184570312	461.5294189453125	112.9810256958008	1222.908081054688	323.7608947753906	274.9459228515625	1294.554321289062	265.6782836914062	380.6338500976562	1348.637939453125	314.0336303710938	431.6640625	1225.475830078125	273.1836242675781	469.1723937988281	1017.853210449219	264.7060852050781	373.0885925292969	1004.309265136719	241.0376434326172	496.9528503417969	836.2723999023438	363.6068420410156	488.2381591796875	792.2800903320312	280.4817199707031	485.7025451660156	935.0453491210938	279.3349609375	487.095703125	679.8516235351562	386.8331909179688	496.7095031738281	740.978515625	308.6220397949219	515.4083251953125	757.2760620117188	368.72119140625	99.13443756103516	1344.36962890625	437.2272033691406	40.41550827026367	1277.697631835938	448.3967590332031	-1.747852802276611	1013.536560058594	488.5856628417969	12.76094245910645	990.0595092773438	427.8340148925781	72.0263671875	830.05517578125	597.3405151367188	0.6415824294090271	795.5196533203125	552.3787841796875	-6.475310802459717	959.528564453125	501.0412292480469	70.28433990478516	673.9024047851562	630.1211547851562	56.53318786621094	743.7559204101562	636.5914306640625	11.15630912780762	730.71533203125	585.086181640625	153.3670959472656	1508.195922851562	418.3986511230469	330.2541198730469	1553.16455078125	500.0574645996094	209.7279663085938	1542.577270507812	539.6480712890625	299.8242492675781	1520.53369140625	355.06787109375	435.6584167480469	875.0037841796875	344.721923828125	79.68148040771484	845.6734619140625	473.1738586425781	171.0033721923828	901.7761840820312	542.7010498046875	395.6680908203125	919.6857299804688	449.0989379882812	476.318603515625	506.3836364746094	551.0514526367188	471.0811462402344	646.6036376953125	477.2974548339844	498.1030578613281	77.92919921875	454.5811157226562	494.3079223632812	364.1970520019531	525.03173828125	534.5177612304688	70.17721557617188	651.40478515625	471.2877502441406	62.61430740356445	604.0719604492188	557.251953125	70.9779052734375	543.8934326171875	422.9183349609375	69.68309020996094	444.8486633300781	175.0939483642578	460.7206420898438	462.4380493164062	195.7112731933594	48.9457893371582	330.6403503417969	209.1979217529297	317.6617126464844	439.7610473632812	327.8614196777344	36.93521118164062	489.0795593261719	330.1982116699219	40.42393112182617	412.4061889648438	235.6083679199219	41.97084426879883	436.4027709960938	216.0513763427734	40.81682968139648	261.96826171875	107.8445205688477	715.5333862304688	501.2066650390625	nan	nan	nan	
329	3.28	161.8981323242188	939.3497314453125	331.2061767578125	278.0557556152344	933.6738891601562	287.6033325195312	217.7568664550781	1011.855224609375	306.8669128417969	299.4329528808594	1184.943115234375	501.0661315917969	204.0482940673828	1116.3544921875	295.9788513183594	212.5935211181641	1347.243286132812	332.4911804199219	281.1324462890625	1279.138427734375	468.4088439941406	117.6339111328125	1221.973022460938	328.6965942382812	280.2199401855469	1293.790405273438	272.5686645507812	385.3077087402344	1347.856323242188	322.1972351074219	436.5819396972656	1224.641479492188	281.7577819824219	473.6677856445312	1016.973266601562	272.7065734863281	377.6567687988281	1003.685363769531	248.7603454589844	500.9266662597656	834.8412475585938	370.9037475585938	491.3788452148438	791.036376953125	287.7586059570312	489.8764038085938	933.8583984375	287.033935546875	490.5346374511719	678.4985961914062	393.93994140625	499.816162109375	739.6705322265625	315.7315368652344	519.0673828125	755.7785034179688	375.7364196777344	102.3512420654297	1343.426513671875	442.1091613769531	43.57000350952148	1276.616943359375	452.9296264648438	1.800264358520508	1012.632141113281	495.7050476074219	16.31797027587891	988.4894409179688	435.2244873046875	77.33429718017578	831.99072265625	607.4156494140625	5.929944038391113	796.0797729492188	563.5180053710938	-2.574111461639404	958.7437744140625	508.9645080566406	76.66848754882812	676.5919189453125	643.6168823242188	62.53554916381836	746.4786987304688	648.6072998046875	17.21788215637207	732.021240234375	597.4833984375	157.0071105957031	1507.4677734375	424.7727966308594	333.7206115722656	1552.000732421875	507.2421569824219	213.0023345947266	1541.700317382812	546.3457641601562	303.9670715332031	1519.526245117188	362.1036071777344	440.0677795410156	873.8031616210938	353.9670715332031	82.43276214599609	845.3688354492188	477.6950073242188	172.7394104003906	901.228271484375	548.3890380859375	398.9381103515625	918.696533203125	457.9584350585938	480.0406799316406	506.03466796875	560.4091186523438	474.8782043457031	645.5822143554688	485.6415710449219	509.6179809570312	73.49346923828125	484.7726440429688	500.3024291992188	362.9624633789062	540.9937133789062	539.7545166015625	75.83030700683594	682.7282104492188	478.1657409667969	65.26792144775391	633.95166015625	566.0802612304688	71.52461242675781	576.12255859375	434.8066101074219	63.94798278808594	473.3028564453125	176.2873992919922	460.2380981445312	465.6818237304688	195.8877410888672	49.09294509887695	330.641357421875	209.9791870117188	317.2046203613281	441.8390502929688	327.8709716796875	36.87931823730469	489.1745910644531	330.2271728515625	40.43066787719727	412.4686279296875	235.584716796875	41.95344924926758	436.4995422363281	216.1214904785156	41.39744186401367	262.081787109375	109.8642425537109	715.0845947265625	505.6369323730469	nan	nan	nan	
330	3.29	166.7854309082031	938.672607421875	336.7742309570312	283.4127807617188	932.7457275390625	294.8121337890625	222.9448699951172	1010.890625	312.9943542480469	302.0097961425781	1183.980224609375	508.1326904296875	209.2169647216797	1115.421875	301.8599243164062	217.1459350585938	1346.302124023438	338.6400146484375	284.0695190429688	1278.143676757812	475.2770385742188	122.3266220092773	1220.989013671875	333.6006164550781	285.5424194335938	1292.96337890625	279.465087890625	390.0018005371094	1346.986938476562	330.3972778320312	441.5573120117188	1223.72314453125	290.412109375	478.2958984375	1016.016784667969	280.8637390136719	382.3900756835938	1002.96337890625	256.503173828125	504.87353515625	833.3064575195312	378.36328125	494.7039184570312	789.7439575195312	295.1477661132812	494.1695861816406	932.5873413085938	294.8978271484375	493.956787109375	677.0330810546875	401.0896911621094	503.0666809082031	738.2880859375	322.9529113769531	522.72265625	754.1881713867188	382.9007873535156	105.6023788452148	1342.399536132812	446.9711303710938	46.78701019287109	1275.42822265625	457.430419921875	5.411498069763184	1011.653259277344	502.7844543457031	20.00644683837891	986.8508911132812	442.5790710449219	82.55002593994141	833.7598266601562	617.3340454101562	11.21374702453613	796.5427856445312	574.3919677734375	1.381500482559204	957.898681640625	516.8211669921875	82.95511627197266	679.14697265625	656.7020874023438	68.42506408691406	749.0114135742188	660.304443359375	23.29986381530762	733.2059326171875	609.4703979492188	160.6471252441406	1506.635498046875	431.1499938964844	337.1585998535156	1550.762451171875	514.4747924804688	216.2417449951172	1540.693603515625	553.0567626953125	308.107666015625	1518.452392578125	369.1693725585938	444.3663940429688	872.5089111328125	363.1810607910156	85.18859100341797	845.0607299804688	482.3385620117188	174.6051177978516	900.634033203125	554.05517578125	402.2192077636719	917.6324462890625	466.7962341308594	483.7603759765625	505.4196166992188	569.3783569335938	478.6869506835938	644.4165649414062	493.7621459960938	520.2994995117188	69.97352600097656	514.5398559570312	506.0148010253906	361.7652893066406	556.5970458984375	543.9842529296875	82.01674652099609	713.0037231445312	484.1065063476562	68.52249908447266	662.9295043945312	573.9173583984375	72.88148498535156	607.6265869140625	445.9718627929688	59.11584091186523	501.293701171875	177.5462646484375	459.7588806152344	468.9932861328125	196.0939483642578	49.25682067871094	330.6433410644531	210.8140106201172	316.7484436035156	443.9755554199219	327.8806457519531	36.83597183227539	489.2645263671875	330.2504577636719	40.4449348449707	412.5710754394531	235.5486145019531	41.95103073120117	436.61279296875	216.1895141601562	42.05831909179688	262.2256774902344	111.9136962890625	714.62841796875	510.1847534179688	nan	nan	nan	
331	3.3	171.5948028564453	937.9346313476562	342.4214782714844	288.6707458496094	931.734619140625	302.0708312988281	228.0983734130859	1009.863952636719	319.0860900878906	304.5897827148438	1182.948608398438	515.1998291015625	214.3836364746094	1114.426635742188	307.7206420898438	221.7342681884766	1345.3095703125	344.7916870117188	286.9997253417969	1277.070678710938	482.1398010253906	127.0466079711914	1219.962768554688	338.4989318847656	290.8948974609375	1292.072021484375	286.3754577636719	394.7048034667969	1346.037963867188	338.6249084472656	446.5788269042969	1222.73291015625	299.136962890625	483.0458679199219	1014.996826171875	289.1792907714844	387.2737121582031	1002.156433105469	264.2720031738281	508.7998657226562	831.6890869140625	386.0003356933594	498.2228393554688	788.4215087890625	302.6574096679688	498.5777893066406	931.2538452148438	302.9382019042969	497.3633728027344	675.4683837890625	408.2823181152344	506.4749450683594	736.8502197265625	330.2952880859375	526.3804321289062	752.5216064453125	390.2286987304688	108.8922348022461	1341.304809570312	451.8309631347656	50.06498336791992	1274.150268554688	461.9281616210938	9.106682777404785	1010.613647460938	509.8278503417969	23.83577728271484	985.1665649414062	449.8971862792969	87.67558288574219	835.3493041992188	627.0877685546875	16.48081016540527	796.9010009765625	584.990478515625	5.397700786590576	957.0087280273438	524.6105346679688	89.1322021484375	681.5333862304688	669.3550415039062	74.18894195556641	751.3290405273438	671.6700439453125	29.31310653686523	734.2559814453125	621.0689697265625	164.3026428222656	1505.710571289062	437.5296630859375	340.5760803222656	1549.458740234375	521.754638671875	219.4502563476562	1539.566040039062	559.7818603515625	312.2408447265625	1517.320678710938	376.2654418945312	448.579833984375	871.1591186523438	372.373291015625	87.90216064453125	844.7438354492188	487.0833740234375	176.6069641113281	899.9840087890625	559.7120361328125	405.5235900878906	916.520751953125	475.624267578125	487.4618530273438	504.5622253417969	577.9815673828125	482.4927673339844	643.1468505859375	501.7353515625	530.1126098632812	67.33365631103516	543.7491455078125	511.4350280761719	360.6202087402344	571.7649536132812	547.3214721679688	88.65184783935547	742.1153564453125	489.1968383789062	72.30004119873047	690.9107055664062	580.78515625	74.98835754394531	638.249267578125	456.3642272949219	55.14047622680664	528.7391967773438	178.8654632568359	459.287109375	472.345947265625	196.330322265625	49.43939971923828	330.6498107910156	211.6962127685547	316.2920837402344	446.1639099121094	327.8877258300781	36.80204772949219	489.35693359375	330.2689514160156	40.47087478637695	412.7106018066406	235.5107116699219	41.96020889282227	436.7368469238281	216.3378448486328	42.76922607421875	262.3363037109375	113.9773941040039	714.1541748046875	514.8080444335938	nan	nan	nan	
